<?xml version="1.0" encoding="UTF-8"?>
<svg version="1.1" xmlns="http://www.w3.org/2000/svg" width="512" height="512">
<path d="M0 0 C5.61139056 2.79574601 9.73823914 7.27776708 12.48046875 12.890625 C13.41101473 15.80895698 13.64738209 18.25150316 13.6875 21.3125 C13.71585937 22.28832031 13.74421875 23.26414062 13.7734375 24.26953125 C12.56764275 32.7203131 7.35012871 38.02083779 1.48632812 43.73266602 C0.3100309 44.90261108 0.3100309 44.90261108 -0.89002991 46.09619141 C-2.58522494 47.7795601 -4.28505824 49.45826829 -5.98902893 51.13275337 C-8.68805625 53.78516314 -11.37465148 56.44962596 -14.05847168 59.11741638 C-19.27323284 64.2966739 -24.50129884 69.46230087 -29.73195648 74.62548828 C-36.84389968 81.6468831 -43.9465788 88.6774918 -51.03700256 95.72062492 C-53.68064512 98.3411348 -56.3335655 100.95198979 -58.98718262 103.56239319 C-60.61230973 105.17342286 -62.23704584 106.78484708 -63.86132812 108.39672852 C-64.59807266 109.11640305 -65.3348172 109.83607758 -66.09388733 110.57756042 C-70.59405579 115.06678572 -74.82506932 119.53662371 -76.21875 125.94140625 C-76.14110889 131.21129655 -75.47165763 134.52663449 -71.6875 138.5 C-67.83927968 140.90088082 -64.18931144 141.92256502 -59.6875 141.125 C-50.97109229 138.14969098 -44.2204098 129.14960381 -37.92602539 122.77270508 C-36.97420562 121.81239738 -36.0221154 120.85235768 -35.06977844 119.89256287 C-33.03442794 117.84061551 -31.00049593 115.78727632 -28.96754646 113.73295021 C-25.74713151 110.47966219 -22.52054369 107.23254348 -19.29258728 103.98674011 C-18.1832017 102.87109479 -17.07381621 101.75544938 -15.96443081 100.63980389 C-15.40927788 100.08153483 -14.85412494 99.52326577 -14.2821492 98.94807947 C-6.77924571 91.40230758 0.71900681 83.85200245 8.20288086 76.28735352 C13.26782699 71.16783703 18.34169077 66.05734332 23.42583662 60.95689124 C26.10944248 58.26394376 28.78832123 55.56664982 31.45625114 52.85816383 C33.96458061 50.31180511 36.48450773 47.77751474 39.01353645 45.25171852 C40.37163831 43.88926409 41.71726779 42.51441195 43.06237793 41.13912964 C49.20108511 35.04079317 55.70408298 29.9233878 64.75 29.9375 C71.61154646 30.23541028 77.44326133 32.50246204 82.234375 37.5078125 C86.19598385 42.6201744 87.51399283 46.54727183 87.75 53.0625 C87.81058594 54.21878906 87.87117188 55.37507813 87.93359375 56.56640625 C86.32271612 66.76863122 78.37839085 73.98998289 71.29980469 80.93505859 C70.29637387 81.93407625 69.29384605 82.93400158 68.29214478 83.93475342 C66.1503082 86.07076742 64.00236907 88.20036726 61.84926605 90.32502365 C58.44387824 93.68555496 55.0530211 97.06050464 51.66387939 100.43740845 C46.30498629 105.77362839 40.93681583 111.10040024 35.56444478 116.42304766 C25.93125774 125.96724561 16.3095002 135.52293478 6.69801641 145.08898795 C3.32685126 148.44335532 -0.04984538 151.79202378 -3.43112993 155.13618922 C-5.52982127 157.21359716 -7.62445417 159.29506196 -9.71809769 161.37755585 C-11.152731 162.80194006 -12.59242545 164.22122102 -14.03225708 165.64035034 C-15.3107402 166.9142865 -15.3107402 166.9142865 -16.61505127 168.21395874 C-17.72887114 169.31722032 -17.72887114 169.31722032 -18.86519241 170.44277 C-22.22210986 174.23244378 -23.16462652 177.27139905 -22.9921875 182.40625 C-22.46019938 186.0619632 -21.2272083 188.80378307 -18.6875 191.5 C-15.03572234 193.80513514 -11.57991316 194.43389532 -7.3125 194.75 C3.61842251 190.98071637 13.16620983 177.69368039 21.13903809 169.5958004 C25.32271819 165.35062909 29.52227232 161.12118583 33.71875 156.88867188 C39.03296984 151.52653605 44.34247838 146.15994619 49.63671875 140.77807617 C53.94047982 136.40390956 58.25887983 132.04467573 62.58728027 127.69489479 C64.22568393 126.04295064 65.85867579 124.38561984 67.48596191 122.72272301 C69.76327582 120.39691286 72.05885696 118.09067132 74.359375 115.7878418 C75.01836792 115.10570618 75.67736084 114.42357056 76.35632324 113.72076416 C82.13112167 108.00746658 88.6729367 104.55585957 96.875 104 C104.03407419 104.40403946 109.44293053 107.17261439 114.25 112.4375 C118.09343688 117.00782801 119.61457633 121.22089243 119.75 127.1875 C119.78996094 128.14011719 119.82992188 129.09273437 119.87109375 130.07421875 C118.36994055 139.28059187 112.74126854 145.79099001 106.24926758 152.09912109 C105.45195724 152.89394897 104.65464691 153.68877686 103.83317566 154.50769043 C101.21921236 157.10807584 98.58822483 159.69049852 95.95703125 162.2734375 C94.12927145 164.08677691 92.3027672 165.90138265 90.47746277 167.7171936 C86.17516587 171.99226214 81.86262708 176.25671446 77.54411572 180.51539576 C69.34213723 188.60433354 61.1618275 196.71510337 52.98648643 204.83095169 C50.30039757 207.49284917 47.60721275 210.14740452 44.91304016 212.80111694 C43.2710143 214.42629591 41.62917369 216.05166208 39.98754883 217.67724609 C39.23583405 218.4139151 38.48411926 219.15058411 37.70962524 219.90957642 C36.681399 220.93108795 36.681399 220.93108795 35.63240051 221.97323608 C35.03604199 222.56125692 34.43968348 223.14927776 33.82525349 223.75511742 C30.6696589 227.39493189 29.84982231 230.54807397 30.00390625 235.40625 C30.53943375 239.03970239 31.86679272 241.7657137 34.3125 244.5 C38.46652013 247.05632008 42.27220066 248.26753949 47.17703247 247.37773132 C55.93140767 243.77946105 63.48764461 233.4177029 70.12585831 226.6701107 C71.86426182 224.90458371 73.60741342 223.14387215 75.35202026 221.38447571 C80.3044003 216.38980073 85.25370031 211.39218082 90.18701172 206.37866211 C93.224301 203.2926832 96.27141447 200.21670289 99.32503891 197.14689064 C100.47766955 195.98442072 101.62665064 194.81831938 102.77173233 193.6484127 C110.49544512 185.76078517 117.184827 179.11864558 128.796875 178.40625 C135.44912446 178.65415992 140.98619264 181.15408233 145.8046875 185.71484375 C150.58075215 191.36940733 152.01881454 197.50484387 151.68359375 204.80859375 C149.63147198 219.69187694 133.92390231 231.03397749 123.83178711 241.11010742 C122.38512383 242.5581282 120.93867283 244.00636109 119.49241638 245.45478821 C115.58990506 249.36183154 111.68426963 253.26573745 107.77790141 257.16892409 C103.67754361 261.2667373 99.57964078 265.3670044 95.4813385 269.46687317 C88.60288104 276.3471458 81.72232714 283.22531661 74.84057617 290.10229492 C66.89692566 298.04049975 58.9568897 305.9823063 51.01871294 313.92598456 C44.18633756 320.76290449 37.35200717 327.59786556 30.51605231 334.43120652 C26.44041687 338.50528714 22.36545013 342.58003043 18.29224968 346.65654564 C14.46380653 350.48788717 10.63290672 354.31675555 6.80013466 358.1437664 C5.3980812 359.54450299 3.99686802 360.94608125 2.59658051 362.34858322 C-10.95673873 375.92135128 -10.95673873 375.92135128 -17.6875 381.5 C-18.68652344 382.33144531 -19.68554688 383.16289062 -20.71484375 384.01953125 C-47.60322368 405.20540913 -79.37975717 416.91633914 -113.68798828 416.81567383 C-115.92140026 416.81252272 -118.15346991 416.83604514 -120.38671875 416.86132812 C-151.04428237 416.99730705 -182.50204809 406.40987175 -206.6875 387.5 C-207.57695312 386.8296875 -208.46640625 386.159375 -209.3828125 385.46875 C-235.78269359 364.84143766 -256.03861777 336.6986357 -262.6875 303.5 C-262.86337646 302.6344751 -263.03925293 301.7689502 -263.22045898 300.87719727 C-265.06105397 290.59607712 -265.13239387 280.34939712 -265.125 269.9375 C-265.12440582 268.94850708 -265.12381165 267.95951416 -265.12319946 266.94055176 C-265.04640977 244.84536341 -262.6902469 223.3630569 -259.6875 201.5 C-259.4893171 200.05057438 -259.29126434 198.60113096 -259.09332275 197.15167236 C-257.94864571 188.76970658 -256.80124321 180.38811361 -255.65332031 172.0065918 C-255.53312468 171.12870152 -255.41292904 170.25081125 -255.28909111 169.34631824 C-254.67832987 164.88737876 -254.06596041 160.42866936 -253.45056152 155.97036743 C-250.00477347 130.99580757 -246.9266672 106.04036327 -244.58984375 80.93359375 C-244.01887761 74.80537546 -243.41732031 68.68324009 -242.69921875 62.5703125 C-242.55572998 61.3342627 -242.41224121 60.09821289 -242.2644043 58.82470703 C-240.88539399 50.87745256 -237.21469289 44.95114756 -230.90625 39.97265625 C-222.94132088 34.68607478 -215.15820859 33.37003846 -205.6875 34.5 C-196.77970032 36.62329781 -189.7705977 41.82434438 -184.8125 49.5 C-179.16106037 61.11023266 -180.10269598 76.87367544 -179.3984375 89.55859375 C-179.28968586 91.44290459 -179.180434 93.32718662 -179.07070923 95.21144104 C-178.78629511 100.11826607 -178.50857789 105.02544689 -178.23236084 109.93273926 C-177.9480959 114.96125635 -177.65735097 119.98939856 -177.3671875 125.01757812 C-176.80102908 134.84470025 -176.24196065 144.6722114 -175.6875 154.5 C-174.52489324 153.33047979 -174.52489324 153.33047979 -173.33879948 152.13733292 C-154.47348062 133.16098479 -135.59373167 114.19908789 -116.69879246 95.2522316 C-107.56165044 86.08931514 -98.42924331 76.92177146 -89.30786133 67.74316406 C-81.35706364 59.74250881 -73.39749701 51.75070048 -65.42730564 43.76936316 C-61.20799426 39.54353719 -56.99318536 35.31343176 -52.78885078 31.0727005 C-48.82953852 27.07939234 -44.85858507 23.0980398 -40.87848854 19.12545013 C-39.42172591 17.66731461 -37.96922658 16.20490503 -36.5214119 14.73788452 C-34.53913817 12.73061833 -32.54188686 10.73950642 -30.54029846 8.75152588 C-29.97508989 8.1717531 -29.40988133 7.59198033 -28.82754523 6.99463868 C-20.77102331 -0.91536282 -10.79063964 -4.10374071 0 0 Z " fill="#000000" transform="translate(264.6875,95.5)"/>
<path d="M0 0 C10.0121254 8.70010911 19.55043411 17.83776758 28.92260742 27.21484375 C30.09183074 28.3810651 31.26125526 29.54708475 32.43086243 30.71292114 C35.56941842 33.84274384 38.70482096 36.97570628 41.83933425 40.10957718 C43.80480567 42.07433261 45.77098965 44.03837212 47.73742104 46.00216675 C54.61677082 52.87230229 61.49357122 59.74497758 68.36791992 66.62011719 C74.74701111 72.99980985 81.13166984 79.37389279 87.5189411 85.74539471 C93.03115173 91.244487 98.53945641 96.7474715 104.04479295 102.25344563 C107.32061377 105.52951993 110.59792694 108.80406421 113.87920189 112.07467651 C116.96423607 115.14995558 120.04433349 118.23009822 123.12087822 121.31386948 C124.24254124 122.4365688 125.36587263 123.5576045 126.49110031 124.67673111 C150.66191155 148.72507066 166.80577462 175.7452074 167.1875 210.625 C166.89723979 244.88720051 151.69957381 270.41857721 128.1640625 293.984375 C126.97002599 295.18486032 125.77613033 296.38548576 124.58236694 297.58624268 C122.09651129 300.08397697 119.60665652 302.57764329 117.11425781 305.06884766 C113.94504212 308.23785967 110.7898488 311.42044818 107.63796425 314.60668564 C105.18252352 317.08451098 102.71789596 319.55304366 100.25071335 322.01917267 C99.08426407 323.18795693 97.92099657 324.35992685 96.76121902 325.53533173 C87.89592832 334.50893026 78.8512522 342.18777629 66.75 346.4375 C66.0681665 346.68258301 65.38633301 346.92766602 64.68383789 347.18017578 C52.79429557 351.30366812 39.07317504 353.06277871 26.6875 350.125 C28.29742119 346.07582935 31.17542066 343.39644749 34.23535156 340.41357422 C34.80146652 339.85359238 35.36758148 339.29361053 35.95085144 338.71665955 C37.17913765 337.50266237 38.40965236 336.29091671 39.64212799 335.08117294 C41.59849535 333.15968027 43.54761079 331.23110177 45.49481201 329.30032349 C51.03188162 323.81205607 56.57982512 318.33488461 62.13720703 312.8671875 C65.53925074 309.51904664 68.93121235 306.16095421 72.31737518 302.79675674 C73.60364511 301.52282007 74.89368675 300.252679 76.18769073 298.98659897 C84.6654658 290.6900366 92.08979757 282.80194943 96 271.3125 C96.30550781 270.43980469 96.61101562 269.56710937 96.92578125 268.66796875 C101.0274882 254.97457784 98.69260335 240.88027952 92.09375 228.38671875 C90.28167907 225.47230467 88.18991825 222.97891938 85.82421875 220.5 C84.6875 219.125 84.6875 219.125 84.6875 217.125 C84.11386719 216.85429687 83.54023438 216.58359375 82.94921875 216.3046875 C80.65059895 215.10575282 78.61959796 213.74028199 76.5 212.25 C72.10951948 209.27439194 67.59920805 207.0989725 62.6875 205.125 C63.07068294 202.28944628 63.54542004 199.5671105 64.421875 196.83984375 C68.82881408 183.05776541 67.73359332 169.34806513 61.33203125 156.37890625 C53.97731259 143.42434819 43.99210139 136.40075537 30.6875 130.125 C30.89246094 129.46113281 31.09742188 128.79726562 31.30859375 128.11328125 C31.71271484 126.78876953 31.71271484 126.78876953 32.125 125.4375 C32.39183594 124.56738281 32.65867187 123.69726562 32.93359375 122.80078125 C36.84272906 108.92638908 35.93964447 93.96446053 29.14453125 81.234375 C21.14658371 67.83735532 10.52942932 59.74514523 -4.59375 55.81640625 C-14.90301362 53.89966291 -24.45231721 54.71847092 -34.3125 58.125 C-35.40433594 58.48851563 -36.49617187 58.85203125 -37.62109375 59.2265625 C-38.50925781 59.52304688 -39.39742187 59.81953125 -40.3125 60.125 C-40.7971875 59.07441406 -41.281875 58.02382812 -41.78125 56.94140625 C-48.88389553 41.90672682 -57.12337965 31.78215286 -73.1875 25.75 C-86.66597262 21.12306164 -100.46577276 22.36550998 -113.375 28.25 C-126.33983842 35.39370158 -136.44695588 47.01105396 -146.7578125 57.41015625 C-148.42069973 59.07932392 -150.08410987 60.74797081 -151.74801636 62.41612244 C-156.09520546 66.77652431 -160.43676061 71.14248806 -164.77667236 75.51013184 C-171.7561823 82.53302857 -178.74270571 89.54893349 -185.73229599 96.56179619 C-188.17272447 99.01247337 -190.60973223 101.46651509 -193.04641724 103.9209137 C-194.52708882 105.40840669 -196.00786692 106.89579365 -197.48876953 108.38305664 C-198.16919815 109.07022263 -198.84962677 109.75738861 -199.55067444 110.46537781 C-200.1672139 111.08343292 -200.78375336 111.70148804 -201.41897583 112.33827209 C-201.95684282 112.87965852 -202.49470982 113.42104494 -203.04887581 113.97883701 C-204.3125 115.125 -204.3125 115.125 -205.3125 115.125 C-206.24184138 89.04267681 -200.74342563 69.74815531 -182.71092224 50.32241821 C-179.9000324 47.41819105 -177.06279157 44.54355344 -174.20703125 41.68359375 C-173.15470641 40.62481342 -172.10251933 39.56589616 -171.05046082 38.5068512 C-168.85965743 36.30418057 -166.66487165 34.10557034 -164.4675293 31.90942383 C-161.68870497 29.13080244 -158.923901 26.3386734 -156.16244984 23.54279995 C-153.99775871 21.35559231 -151.82375331 19.17781772 -149.64725304 17.00236702 C-148.62561916 15.97841506 -147.60712424 14.95131887 -146.59223366 13.92068291 C-108.45470248 -24.75299928 -44.61796917 -34.82203684 0 0 Z " fill="#000000" transform="translate(345.3125,42.875)"/>
<path d="M0 0 C4.57511951 2.16716188 6.94129305 4.40932013 9 9 C9.36245433 12.61227562 9.2824631 16.18685763 9.1875 19.8125 C9.16719727 21.28106445 9.16719727 21.28106445 9.14648438 22.77929688 C9.11125312 25.18676625 9.06199265 27.59309564 9 30 C9.60473145 29.97905273 10.20946289 29.95810547 10.83251953 29.93652344 C13.59650771 29.85291055 16.36022913 29.80119946 19.125 29.75 C20.07632813 29.71648437 21.02765625 29.68296875 22.0078125 29.6484375 C27.84778913 29.56732671 31.49620977 29.87503324 36 34 C40.05630398 39.22259857 39.77397544 44.65340142 39 51 C36.83283812 55.57511951 34.59067987 57.94129305 30 60 C26.38772438 60.36245433 22.81314237 60.2824631 19.1875 60.1875 C18.20845703 60.17396484 17.22941406 60.16042969 16.22070312 60.14648438 C13.81323375 60.11125312 11.40690436 60.06199265 9 60 C9.02094727 60.60473145 9.04189453 61.20946289 9.06347656 61.83251953 C9.14708945 64.59650771 9.19880054 67.36022913 9.25 70.125 C9.30027344 71.55199219 9.30027344 71.55199219 9.3515625 73.0078125 C9.43267329 78.84778913 9.12496676 82.49620977 5 87 C-0.22259857 91.05630398 -5.65340142 90.77397544 -12 90 C-16.57511951 87.83283812 -18.94129305 85.59067987 -21 81 C-21.36245433 77.38772438 -21.2824631 73.81314237 -21.1875 70.1875 C-21.17396484 69.20845703 -21.16042969 68.22941406 -21.14648438 67.22070312 C-21.11125312 64.81323375 -21.06199265 62.40690436 -21 60 C-21.60473145 60.02094727 -22.20946289 60.04189453 -22.83251953 60.06347656 C-25.59650771 60.14708945 -28.36022913 60.19880054 -31.125 60.25 C-32.07632812 60.28351563 -33.02765625 60.31703125 -34.0078125 60.3515625 C-39.84778913 60.43267329 -43.49620977 60.12496676 -48 56 C-52.05630398 50.77740143 -51.77397544 45.34659858 -51 39 C-48.83283812 34.42488049 -46.59067987 32.05870695 -42 30 C-38.38772438 29.63754567 -34.81314237 29.7175369 -31.1875 29.8125 C-30.20845703 29.82603516 -29.22941406 29.83957031 -28.22070312 29.85351562 C-25.81323375 29.88874688 -23.40690436 29.93800735 -21 30 C-21.02094727 29.39526855 -21.04189453 28.79053711 -21.06347656 28.16748047 C-21.14708945 25.40349229 -21.19880054 22.63977087 -21.25 19.875 C-21.28351563 18.92367188 -21.31703125 17.97234375 -21.3515625 16.9921875 C-21.43267329 11.15221087 -21.12496676 7.50379023 -17 3 C-11.77740143 -1.05630398 -6.34659858 -0.77397544 0 0 Z " fill="#000000" transform="translate(382,422)"/>
<path d="M0 0 C4.57511951 2.16716188 6.94129305 4.40932013 9 9 C9.36245433 12.61227562 9.2824631 16.18685763 9.1875 19.8125 C9.16719727 21.28106445 9.16719727 21.28106445 9.14648438 22.77929688 C9.11125312 25.18676625 9.06199265 27.59309564 9 30 C9.60473145 29.97905273 10.20946289 29.95810547 10.83251953 29.93652344 C13.59650771 29.85291055 16.36022913 29.80119946 19.125 29.75 C20.07632813 29.71648438 21.02765625 29.68296875 22.0078125 29.6484375 C27.84778913 29.56732671 31.49620977 29.87503324 36 34 C40.05630398 39.22259857 39.77397544 44.65340142 39 51 C36.83283812 55.57511951 34.59067987 57.94129305 30 60 C26.38772438 60.36245433 22.81314237 60.2824631 19.1875 60.1875 C18.20845703 60.17396484 17.22941406 60.16042969 16.22070312 60.14648438 C13.81323375 60.11125312 11.40690436 60.06199265 9 60 C9.02094727 60.60473145 9.04189453 61.20946289 9.06347656 61.83251953 C9.14708945 64.59650771 9.19880054 67.36022913 9.25 70.125 C9.30027344 71.55199219 9.30027344 71.55199219 9.3515625 73.0078125 C9.43267329 78.84778913 9.12496676 82.49620977 5 87 C-0.22259857 91.05630398 -5.65340142 90.77397544 -12 90 C-16.57511951 87.83283812 -18.94129305 85.59067987 -21 81 C-21.36245433 77.38772438 -21.2824631 73.81314237 -21.1875 70.1875 C-21.17396484 69.20845703 -21.16042969 68.22941406 -21.14648438 67.22070312 C-21.11125312 64.81323375 -21.06199265 62.40690436 -21 60 C-21.60473145 60.02094727 -22.20946289 60.04189453 -22.83251953 60.06347656 C-25.59650771 60.14708945 -28.36022913 60.19880054 -31.125 60.25 C-32.07632812 60.28351562 -33.02765625 60.31703125 -34.0078125 60.3515625 C-39.84778913 60.43267329 -43.49620977 60.12496676 -48 56 C-52.05630398 50.77740143 -51.77397544 45.34659858 -51 39 C-48.83283812 34.42488049 -46.59067987 32.05870695 -42 30 C-38.38772438 29.63754567 -34.81314237 29.7175369 -31.1875 29.8125 C-30.20845703 29.82603516 -29.22941406 29.83957031 -28.22070312 29.85351562 C-25.81323375 29.88874688 -23.40690436 29.93800735 -21 30 C-21.02094727 29.39526855 -21.04189453 28.79053711 -21.06347656 28.16748047 C-21.14708945 25.40349229 -21.19880054 22.63977087 -21.25 19.875 C-21.28351563 18.92367188 -21.31703125 17.97234375 -21.3515625 16.9921875 C-21.43267329 11.15221087 -21.12496676 7.50379023 -17 3 C-11.77740143 -1.05630398 -6.34659858 -0.77397544 0 0 Z " fill="#000000" transform="translate(473,0)"/>
<path d="M0 0 C1.49356522 -0.01029488 1.49356522 -0.01029488 3.01730347 -0.02079773 C6.30538229 -0.03908373 9.5929848 -0.03522554 12.88110352 -0.02954102 C15.1688706 -0.03410195 17.45663631 -0.03940725 19.74440002 -0.04542542 C24.53847826 -0.05436008 29.33238995 -0.05192924 34.12646484 -0.04199219 C40.26792179 -0.03050238 46.40880379 -0.05071291 52.5501852 -0.07990932 C57.27455798 -0.09826146 61.99879274 -0.09798078 66.72319221 -0.0922718 C68.98739491 -0.09211847 71.25160689 -0.09817285 73.51577568 -0.11056328 C76.6827583 -0.12545226 79.84867556 -0.11481076 83.015625 -0.09765625 C83.94932419 -0.10732422 84.88302338 -0.11699219 85.84501648 -0.12695312 C91.41863953 -0.06378264 94.666993 0.65326945 99.07250977 4.40405273 C103.12881375 9.62665131 102.8464852 15.05745416 102.07250977 21.40405273 C99.90101893 25.98831115 97.64385328 28.29512322 93.07250977 30.40405273 C89.76341387 30.84719792 86.47973158 30.82414835 83.14501953 30.80810547 C82.14930939 30.81496872 81.15359924 30.82183197 80.12771606 30.8289032 C76.83963724 30.8471892 73.55203473 30.84333101 70.26391602 30.83764648 C67.97614893 30.84220741 65.68838322 30.84751272 63.40061951 30.85353088 C58.60654127 30.86246555 53.81262958 30.86003471 49.01855469 30.85009766 C42.87709774 30.83860784 36.73621574 30.85881838 30.59483433 30.88801479 C25.87046155 30.90636693 21.14622679 30.90608625 16.42182732 30.90037727 C14.15762462 30.90022394 11.89341265 30.90627832 9.62924385 30.91866875 C6.46226124 30.93355772 3.29634397 30.92291623 0.12939453 30.90576172 C-0.80430466 30.91542969 -1.73800385 30.92509766 -2.69999695 30.93505859 C-8.27362 30.87188811 -11.52197347 30.15483602 -15.92749023 26.40405273 C-19.98379422 21.18145416 -19.70146567 15.75065131 -18.92749023 9.40405273 C-14.78315311 0.65489659 -8.80765729 -0.04237253 0 0 Z " fill="#000000" transform="translate(18.927490234375,59.595947265625)"/>
<path d="M0 0 C1.47893486 -0.01029488 1.47893486 -0.01029488 2.98774719 -0.02079773 C6.24336187 -0.03908255 9.49849543 -0.03522571 12.75415039 -0.02954102 C15.01949724 -0.03410201 17.28484271 -0.03940733 19.55018616 -0.04542542 C24.29718651 -0.05435985 29.04401865 -0.05192951 33.79101562 -0.04199219 C39.87194057 -0.03050244 45.95228485 -0.05071291 52.03313351 -0.07990932 C56.71118351 -0.09826213 61.38909413 -0.09798065 66.0671711 -0.0922718 C68.30904518 -0.09211848 70.55092864 -0.09817221 72.79276848 -0.11056328 C75.92862164 -0.12545354 79.06339907 -0.11480987 82.19921875 -0.09765625 C83.1235672 -0.10732422 84.04791565 -0.11699219 85.00027466 -0.12695312 C90.55057242 -0.06343101 93.77461631 0.6753459 98.16430664 4.40405273 C102.22061062 9.62665131 101.93828208 15.05745416 101.16430664 21.40405273 C98.99265771 25.98864491 96.73409543 28.2917682 92.16430664 30.40405273 C88.88568641 30.84651422 85.6330172 30.82416301 82.32861328 30.80810547 C80.84967842 30.81840034 80.84967842 30.81840034 79.34086609 30.8289032 C76.08525141 30.84718801 72.83011785 30.84333118 69.57446289 30.83764648 C67.30911604 30.84220747 65.04377057 30.8475128 62.77842712 30.85353088 C58.03142677 30.86246532 53.28459463 30.86003498 48.53759766 30.85009766 C42.45667271 30.83860791 36.37632844 30.85881838 30.29547977 30.88801479 C25.61742977 30.9063676 20.93951915 30.90608612 16.26144218 30.90037727 C14.0195681 30.90022395 11.77768464 30.90627767 9.5358448 30.91866875 C6.39999164 30.933559 3.26521421 30.92291534 0.12939453 30.90576172 C-0.79495392 30.91542969 -1.71930237 30.92509766 -2.67166138 30.93505859 C-8.22195914 30.87153648 -11.44600303 30.13275957 -15.83569336 26.40405273 C-19.89199734 21.18145416 -19.6096688 15.75065131 -18.83569336 9.40405273 C-14.71034071 0.69497492 -8.7737284 -0.04263536 0 0 Z " fill="#000000" transform="translate(79.835693359375,-0.404052734375)"/>
</svg>
