<?xml version="1.0" encoding="UTF-8"?>
<!DOCTYPE svg PUBLIC "-//W3C//DTD SVG 1.1//EN" "http://www.w3.org/Graphics/SVG/1.1/DTD/svg11.dtd">
<svg xmlns="http://www.w3.org/2000/svg" version="1.1" width="512px" height="512px" style="shape-rendering:geometricPrecision; text-rendering:geometricPrecision; image-rendering:optimizeQuality; fill-rule:evenodd; clip-rule:evenodd" xmlns:xlink="http://www.w3.org/1999/xlink">
<g><path style="opacity:0.985" fill="#083344" d="M 69.5,-0.5 C 103.5,-0.5 137.5,-0.5 171.5,-0.5C 180.454,4.84176 182.954,12.5084 179,22.5C 177.833,25 176,26.8333 173.5,28C 155.921,29.154 138.255,29.654 120.5,29.5C 102.745,29.654 85.0787,29.154 67.5,28C 62.4076,24.9833 60.0743,20.4833 60.5,14.5C 60.6433,7.70928 63.6433,2.70928 69.5,-0.5 Z"/></g>
<g><path style="opacity:0.968" fill="#083344" d="M 460.5,-0.5 C 464.5,-0.5 468.5,-0.5 472.5,-0.5C 476.479,1.31481 479.312,4.31481 481,8.5C 481.5,15.4921 481.666,22.4921 481.5,29.5C 488.508,29.3337 495.508,29.5004 502.5,30C 506.685,31.6878 509.685,34.5212 511.5,38.5C 511.5,42.5 511.5,46.5 511.5,50.5C 509.685,54.4788 506.685,57.3122 502.5,59C 495.508,59.4996 488.508,59.6663 481.5,59.5C 481.666,66.5079 481.5,73.5079 481,80.5C 475.848,89.4747 468.348,91.9747 458.5,88C 453.548,84.9338 451.048,80.4338 451,74.5C 450.501,69.5111 450.334,64.5111 450.5,59.5C 443.053,59.9286 435.719,59.4286 428.5,58C 423.408,54.9833 421.074,50.4833 421.5,44.5C 421.074,38.5167 423.408,34.0167 428.5,31C 435.719,29.5714 443.053,29.0714 450.5,29.5C 450.27,22.4453 450.77,15.4453 452,8.5C 453.688,4.31481 456.521,1.31481 460.5,-0.5 Z"/></g>
<g><path style="opacity:0.961" fill="#083344" d="M 511.5,237.5 C 511.5,246.833 511.5,256.167 511.5,265.5C 508.359,285.457 500.526,303.457 488,319.5C 468.805,339.029 449.305,358.195 429.5,377C 410.6,389.713 389.933,393.713 367.5,389C 359.505,387.002 352.005,383.835 345,379.5C 315.139,409.028 285.639,438.861 256.5,469C 231.467,492.85 201.8,507.016 167.5,511.5C 155.833,511.5 144.167,511.5 132.5,511.5C 68.7325,501.343 26.2325,465.676 5,404.5C 2.95089,396.075 1.11755,387.741 -0.5,379.5C -0.5,367.833 -0.5,356.167 -0.5,344.5C 6.97575,283.351 14.1424,222.018 21,160.5C 29.1084,133.514 47.275,121.681 75.5,125C 96.2067,130.708 108.04,144.208 111,165.5C 112.021,185.524 113.354,205.524 115,225.5C 127.681,212.986 140.181,200.319 152.5,187.5C 140.303,167.922 137.137,146.922 143,124.5C 145.335,116.164 149.002,108.497 154,101.5C 173.833,80.3333 194.333,59.8333 215.5,40C 249.798,16.8493 286.131,13.1827 324.5,29C 332.003,32.5816 339.003,36.9149 345.5,42C 394,89.1667 441.833,137 489,185.5C 500.636,201.1 508.136,218.433 511.5,237.5 Z M 267.5,50.5 C 289.484,48.0767 309.151,53.5767 326.5,67C 372.333,112.833 418.167,158.667 464,204.5C 482.52,229.691 485.52,256.691 473,285.5C 470.059,290.772 466.726,295.772 463,300.5C 446.5,317 430,333.5 413.5,350C 399.57,360.198 384.57,362.198 368.5,356C 386.362,338.472 403.862,320.638 421,302.5C 434.655,278.782 431.488,257.615 411.5,239C 408.661,237.08 405.661,235.413 402.5,234C 414.073,206.497 407.073,185.164 381.5,170C 391.171,148.358 387.505,129.358 370.5,113C 354.518,101.429 337.685,99.9291 320,108.5C 308.351,87.2603 290.517,78.7603 266.5,83C 260.44,84.8636 254.774,87.5302 249.5,91C 225,115.5 200.5,140 176,164.5C 168.501,147.35 170.501,131.35 182,116.5C 199.195,98.9711 216.695,81.8044 234.5,65C 244.626,57.9315 255.626,53.0981 267.5,50.5 Z M 275.5,112.5 C 290.704,114.58 295.204,122.58 289,136.5C 259.667,165.833 230.333,195.167 201,224.5C 197.546,231.002 197.879,237.335 202,243.5C 208.546,249.08 215.713,249.913 223.5,246C 259.833,209.667 296.167,173.333 332.5,137C 342.093,131.774 349.593,133.941 355,143.5C 356.287,149.018 355.287,154.018 352,158.5C 316,194.5 280,230.5 244,266.5C 238.085,280.003 242.251,288.337 256.5,291.5C 260.028,290.894 263.361,289.728 266.5,288C 295.833,258.667 325.167,229.333 354.5,200C 366.664,195.249 374.33,199.249 377.5,212C 376.896,214.584 376.063,217.084 375,219.5C 345.667,248.833 316.333,278.167 287,307.5C 280.461,318.808 282.961,327.308 294.5,333C 299.94,334.174 304.94,333.174 309.5,330C 331.5,308 353.5,286 375.5,264C 387.732,258.783 395.399,262.616 398.5,275.5C 398.17,278.324 397.336,280.991 396,283.5C 340.194,340.306 284.028,396.806 227.5,453C 184.908,485.192 139.575,489.526 91.5,466C 47.0891,438.68 26.9224,398.847 31,346.5C 37.7509,285.073 45.0843,223.74 53,162.5C 58.8621,155.026 66.0288,153.526 74.5,158C 76.6166,159.731 78.1166,161.898 79,164.5C 81.801,198.113 84.1343,231.78 86,265.5C 91.0676,276.745 99.2343,279.579 110.5,274C 163.167,221.333 215.833,168.667 268.5,116C 270.925,114.787 273.259,113.621 275.5,112.5 Z"/></g>
<g><path style="opacity:0.985" fill="#083344" d="M -0.5,80.5 C -0.5,76.5 -0.5,72.5 -0.5,68.5C 1.31481,64.5212 4.31481,61.6878 8.5,60C 42.8333,59.3333 77.1667,59.3333 111.5,60C 121.778,66.7266 123.612,75.2266 117,85.5C 115.167,86.6667 113.333,87.8333 111.5,89C 77.1667,89.6667 42.8333,89.6667 8.5,89C 4.31481,87.3122 1.31481,84.4788 -0.5,80.5 Z"/></g>
<g><path style="opacity:1" fill="#083446" d="M 311.5,307.5 C 313.745,307.541 314.412,308.375 313.5,310C 310.688,311.549 307.688,312.382 304.5,312.5C 304.281,311.325 304.614,310.325 305.5,309.5C 307.657,308.95 309.657,308.283 311.5,307.5 Z"/></g>
<g><path style="opacity:0.962" fill="#083344" d="M 380.5,511.5 C 377.167,511.5 373.833,511.5 370.5,511.5C 366.038,509.994 362.871,506.994 361,502.5C 359.77,495.555 359.27,488.555 359.5,481.5C 352.053,481.929 344.719,481.429 337.5,480C 332.408,476.983 330.074,472.483 330.5,466.5C 330.45,457.113 335.117,451.946 344.5,451C 349.489,450.501 354.489,450.334 359.5,450.5C 359.059,442.989 359.892,435.655 362,428.5C 365.017,423.408 369.517,421.074 375.5,421.5C 381.483,421.074 385.983,423.408 389,428.5C 390.429,435.719 390.929,443.053 390.5,450.5C 398.354,449.968 406.02,450.802 413.5,453C 418.592,456.017 420.926,460.517 420.5,466.5C 420.926,472.483 418.592,476.983 413.5,480C 405.92,481.396 398.253,481.896 390.5,481.5C 390.666,488.508 390.5,495.508 390,502.5C 388.129,506.994 384.962,509.994 380.5,511.5 Z"/></g>
</svg>
