<?xml version="1.0" encoding="UTF-8"?>
<!DOCTYPE svg PUBLIC "-//W3C//DTD SVG 1.1//EN" "http://www.w3.org/Graphics/SVG/1.1/DTD/svg11.dtd">
<svg xmlns="http://www.w3.org/2000/svg" version="1.1" width="512px" height="512px" style="shape-rendering:geometricPrecision; text-rendering:geometricPrecision; image-rendering:optimizeQuality; fill-rule:evenodd; clip-rule:evenodd" xmlns:xlink="http://www.w3.org/1999/xlink">
<g><path style="opacity:0.962" fill="#073243" d="M 415.5,-0.5 C 423.5,-0.5 431.5,-0.5 439.5,-0.5C 473.712,7.2182 493.212,28.5515 498,63.5C 499.44,88.4514 490.606,108.951 471.5,125C 435.667,154.833 399.833,184.667 364,214.5C 363.333,215.167 363.333,215.833 364,216.5C 372,224.5 380,232.5 388,240.5C 405.126,261.477 409.126,284.811 400,310.5C 396.835,316.834 393.169,322.834 389,328.5C 353.667,363.833 318.333,399.167 283,434.5C 279.221,439.723 276.221,445.39 274,451.5C 272.261,460.774 270.928,470.107 270,479.5C 264.35,496.656 252.85,507.322 235.5,511.5C 229.167,511.5 222.833,511.5 216.5,511.5C 191.331,503.111 179.164,485.445 180,458.5C 178.068,448.304 173.735,439.304 167,431.5C 116.333,380.833 65.6667,330.167 15,279.5C 11.6667,273.833 11.6667,268.167 15,262.5C 65.7013,211.632 116.535,160.965 167.5,110.5C 170.089,109.581 172.089,107.914 173.5,105.5C 175.027,105.573 176.027,104.906 176.5,103.5C 178.027,103.573 179.027,102.906 179.5,101.5C 200.446,90.0992 221.78,89.5992 243.5,100C 248.008,102.753 252.341,105.753 256.5,109C 265,117.5 273.5,126 282,134.5C 312.905,97.6845 343.572,60.6845 374,23.5C 385.413,11.2133 399.247,3.21332 415.5,-0.5 Z M 419.5,30.5 C 447.26,28.7664 463.26,41.5997 467.5,69C 466.689,81.9546 461.356,92.6212 451.5,101C 414.5,131.5 377.5,162 340.5,192.5C 328.167,180.833 316.167,168.833 304.5,156.5C 336.522,118.313 368.355,79.9792 400,41.5C 405.94,36.619 412.44,32.9524 419.5,30.5 Z M 205.5,123.5 C 215.338,122.376 224.338,124.543 232.5,130C 277.333,174.833 322.167,219.667 367,264.5C 375.452,277.757 375.618,291.09 367.5,304.5C 309.014,246.514 250.68,188.347 192.5,130C 196.572,127.153 200.906,124.986 205.5,123.5 Z M 169.5,151.5 C 228.132,209.632 286.632,267.965 345,326.5C 345.667,327.167 345.667,327.833 345,328.5C 338,335.5 331,342.5 324,349.5C 311.999,329.586 294.499,321.753 271.5,326C 265.178,327.328 259.511,329.995 254.5,334C 247.833,340.667 241.167,347.333 234.5,354C 227.586,359.153 221.42,358.32 216,351.5C 214.496,347.961 214.163,344.295 215,340.5C 219.667,335.167 224.333,329.833 229,324.5C 238.143,305.825 235.976,288.659 222.5,273C 198.905,256.812 177.572,259.479 158.5,281C 148.6,284.881 142.266,281.548 139.5,271C 140.137,268.755 140.97,266.588 142,264.5C 150.031,256.803 157.698,248.803 165,240.5C 178.979,213.202 173.479,190.869 148.5,173.5C 155.521,166.146 162.521,158.813 169.5,151.5 Z M 126.5,199.5 C 139.96,202.125 144.126,209.791 139,222.5C 133,228.5 127,234.5 121,240.5C 106.278,258.218 104.945,276.885 117,296.5C 133.257,314.87 152.424,318.704 174.5,308C 180.458,303.711 186.124,299.044 191.5,294C 200.492,293.328 204.325,297.494 203,306.5C 198.667,311.5 194.333,316.5 190,321.5C 178.37,343.812 181.87,363.312 200.5,380C 218.41,391.522 236.076,391.189 253.5,379C 260.864,371.302 268.53,363.969 276.5,357C 288.069,353.951 295.069,358.285 297.5,370C 296.953,373.925 295.453,377.425 293,380.5C 281.333,392.167 269.667,403.833 258,415.5C 246.212,431.865 240.212,450.198 240,470.5C 235.163,480.777 227.663,483.277 217.5,478C 215.641,476.442 214.141,474.609 213,472.5C 212.936,449.969 205.936,429.969 192,412.5C 144.833,365.333 97.6667,318.167 50.5,271C 73.1667,248.333 95.8333,225.667 118.5,203C 121.158,201.522 123.825,200.355 126.5,199.5 Z"/></g>
<g><path style="opacity:0.919" fill="#083344" d="M 425.5,53.5 C 440.124,54.6237 445.624,62.2904 442,76.5C 435.799,84.8145 427.966,86.6479 418.5,82C 410.285,73.0404 410.618,64.3737 419.5,56C 421.611,55.1553 423.611,54.322 425.5,53.5 Z"/></g>
<g><path style="opacity:0.914" fill="#062937" d="M 179.5,101.5 C 179.027,102.906 178.027,103.573 176.5,103.5C 176.973,102.094 177.973,101.427 179.5,101.5 Z"/></g>
<g><path style="opacity:0.922" fill="#062835" d="M 176.5,103.5 C 176.027,104.906 175.027,105.573 173.5,105.5C 173.973,104.094 174.973,103.427 176.5,103.5 Z"/></g>
<g><path style="opacity:0.949" fill="#062b3a" d="M 173.5,105.5 C 172.089,107.914 170.089,109.581 167.5,110.5C 168.911,108.086 170.911,106.419 173.5,105.5 Z"/></g>
</svg>
