<?xml version="1.0" encoding="UTF-8"?>
<!DOCTYPE svg PUBLIC "-//W3C//DTD SVG 1.1//EN" "http://www.w3.org/Graphics/SVG/1.1/DTD/svg11.dtd">
<svg xmlns="http://www.w3.org/2000/svg" version="1.1" width="512px" height="512px" style="shape-rendering:geometricPrecision; text-rendering:geometricPrecision; image-rendering:optimizeQuality; fill-rule:evenodd; clip-rule:evenodd" xmlns:xlink="http://www.w3.org/1999/xlink">
<g><path style="opacity:0.971" fill="#083344" d="M 25.5,-0.5 C 70.5,-0.5 115.5,-0.5 160.5,-0.5C 172.219,3.39013 179.719,11.3901 183,23.5C 183.667,37.5 183.667,51.5 183,65.5C 181.289,74.2618 176.622,80.9284 169,85.5C 168.333,168.5 168.333,251.5 169,334.5C 174.892,354.409 188.059,362.909 208.5,360C 222.189,356.31 230.356,347.476 233,333.5C 233.333,271.833 233.667,210.167 234,148.5C 242.269,86.4515 276.102,45.6181 335.5,26C 342.396,24.1285 349.396,22.7951 356.5,22C 378.167,21.6667 399.833,21.3333 421.5,21C 425.882,13.6464 432.215,8.9797 440.5,7C 455.5,6.33333 470.5,6.33333 485.5,7C 497.406,10.5731 504.906,18.4064 508,30.5C 508.667,74.5 508.667,118.5 508,162.5C 504.906,174.594 497.406,182.427 485.5,186C 470.5,186.667 455.5,186.667 440.5,186C 432.203,184.016 425.87,179.35 421.5,172C 409.171,171.5 396.838,171.333 384.5,171.5C 384.667,228.168 384.5,284.834 384,341.5C 375.972,416.107 337.805,468.607 269.5,499C 253.47,504.923 237.137,509.09 220.5,511.5C 207.5,511.5 194.5,511.5 181.5,511.5C 103.241,499.615 51.0741,456.282 25,381.5C 21.3826,369.413 19.0492,357.079 18,344.5C 17.6667,258.167 17.3333,171.833 17,85.5C 10.8334,81.6657 6.50002,76.3323 4,69.5C 2.89741,61.2255 2.39741,52.8921 2.5,44.5C -0.671056,28.9882 3.32894,15.8216 14.5,5C 17.9905,2.588 21.6571,0.754663 25.5,-0.5 Z M 33.5,29.5 C 73.1667,29.5 112.833,29.5 152.5,29.5C 152.5,39.5 152.5,49.5 152.5,59.5C 112.833,59.5 73.1667,59.5 33.5,59.5C 33.5,49.5 33.5,39.5 33.5,29.5 Z M 448.5,36.5 C 458.167,36.5 467.833,36.5 477.5,36.5C 477.5,76.5 477.5,116.5 477.5,156.5C 467.833,156.5 458.167,156.5 448.5,156.5C 448.5,116.5 448.5,76.5 448.5,36.5 Z M 372.5,51.5 C 387.5,51.5 402.5,51.5 417.5,51.5C 417.5,81.5 417.5,111.5 417.5,141.5C 400.497,141.333 383.497,141.5 366.5,142C 361.065,143.769 357.232,147.269 355,152.5C 353.516,197.106 353.016,241.773 353.5,286.5C 323.833,286.5 294.167,286.5 264.5,286.5C 264.333,241.165 264.5,195.832 265,150.5C 272.85,98.9838 302.017,66.8172 352.5,54C 359.308,53.1167 365.975,52.2834 372.5,51.5 Z M 48.5,89.5 C 78.1667,89.5 107.833,89.5 137.5,89.5C 137.667,134.835 137.5,180.168 137,225.5C 127.146,221.442 117.312,221.609 107.5,226C 102.832,228.585 97.9984,230.752 93,232.5C 87.1209,230.145 81.2876,227.645 75.5,225C 66.5554,221.91 57.5554,221.743 48.5,224.5C 48.5,179.5 48.5,134.5 48.5,89.5 Z M 60.5,253.5 C 67.6946,255.761 74.6946,258.594 81.5,262C 88.8473,263.957 96.1807,263.957 103.5,262C 110.175,259.579 116.675,256.746 123,253.5C 127.654,254.743 132.154,256.41 136.5,258.5C 137.333,285.16 137.833,311.827 138,338.5C 145.62,372.123 166.62,389.79 201,391.5C 236.249,389.589 257.249,371.256 264,336.5C 264.5,330.175 264.666,323.842 264.5,317.5C 294.167,317.5 323.833,317.5 353.5,317.5C 354.724,380.027 329.057,427.861 276.5,461C 224.077,488.489 172.077,487.489 120.5,458C 65.6184,420.045 41.6184,367.545 48.5,300.5C 48.8333,286.5 49.1667,272.5 49.5,258.5C 53.1845,256.617 56.8511,254.95 60.5,253.5 Z"/></g>
</svg>
