<?xml version="1.0" encoding="UTF-8"?>
<!DOCTYPE svg PUBLIC "-//W3C//DTD SVG 1.1//EN" "http://www.w3.org/Graphics/SVG/1.1/DTD/svg11.dtd">
<svg xmlns="http://www.w3.org/2000/svg" version="1.1" width="512px" height="512px" style="shape-rendering:geometricPrecision; text-rendering:geometricPrecision; image-rendering:optimizeQuality; fill-rule:evenodd; clip-rule:evenodd" xmlns:xlink="http://www.w3.org/1999/xlink">
<g><path style="opacity:0.965" fill="#073243" d="M 104.5,-0.5 C 114.833,-0.5 125.167,-0.5 135.5,-0.5C 188.959,9.4532 222.792,40.7865 237,93.5C 240.694,112.305 240.194,130.971 235.5,149.5C 245.486,159.986 255.652,170.319 266,180.5C 292.667,153.833 319.333,127.167 346,100.5C 346.667,99.8333 346.667,99.1667 346,98.5C 340.104,93.9491 335.771,88.2825 333,81.5C 331.825,74.6929 333.992,69.1929 339.5,65C 375.897,43.1408 412.23,21.3075 448.5,-0.5C 452.167,-0.5 455.833,-0.5 459.5,-0.5C 477.833,15.8333 495.167,33.1667 511.5,51.5C 511.5,55.1667 511.5,58.8333 511.5,62.5C 489.444,99.6025 467.11,136.603 444.5,173.5C 437.591,179.508 430.258,180.008 422.5,175C 419.167,171.667 415.833,168.333 412.5,165C 411.833,164.333 411.167,164.333 410.5,165C 383.833,191.667 357.167,218.333 330.5,245C 340.681,255.348 351.014,265.514 361.5,275.5C 409.671,264.725 450.505,277.392 484,313.5C 498.498,331.835 507.664,352.502 511.5,375.5C 511.5,385.833 511.5,396.167 511.5,406.5C 508.962,422.277 503.795,437.277 496,451.5C 489.459,457.126 482.292,457.96 474.5,454C 454.833,434.333 435.167,414.667 415.5,395C 402.788,388.855 394.788,392.688 391.5,406.5C 392.175,409.691 393.342,412.691 395,415.5C 414.667,435.167 434.333,454.833 454,474.5C 457.96,482.292 457.126,489.459 451.5,496C 437.234,503.699 422.234,508.865 406.5,511.5C 396.167,511.5 385.833,511.5 375.5,511.5C 322.041,501.547 288.208,470.213 274,417.5C 270.306,398.695 270.806,380.029 275.5,361.5C 272.833,358.167 269.833,355.167 266.5,352.5C 217.708,399.791 169.375,447.625 121.5,496C 110.976,503.933 99.3094,509.099 86.5,511.5C 78.5,511.5 70.5,511.5 62.5,511.5C 28.5,503.5 7.5,482.5 -0.5,448.5C -0.5,440.5 -0.5,432.5 -0.5,424.5C 1.90083,411.691 7.0675,400.024 15,389.5C 63.1667,341.333 111.333,293.167 159.5,245C 156.318,241.651 152.985,238.484 149.5,235.5C 101.329,246.275 60.4953,233.608 27,197.5C 12.5023,179.165 3.33563,158.498 -0.5,135.5C -0.5,125.167 -0.5,114.833 -0.5,104.5C 2.1348,88.7662 7.30147,73.7662 15,59.5C 21.541,53.8736 28.7077,53.0403 36.5,57C 56.1667,76.6667 75.8333,96.3333 95.5,116C 108.212,122.145 116.212,118.312 119.5,104.5C 118.825,101.309 117.658,98.3087 116,95.5C 96.3333,75.8333 76.6667,56.1667 57,36.5C 53.0403,28.7077 53.8736,21.541 59.5,15C 73.7662,7.30147 88.7662,2.1348 104.5,-0.5 Z M 118.5,29.5 C 157.584,31.6107 185.418,50.2774 202,85.5C 210.418,108.581 210.585,131.748 202.5,155C 202.952,158.409 204.119,161.576 206,164.5C 252.833,211.333 299.667,258.167 346.5,305C 349.424,306.881 352.591,308.048 356,308.5C 394.199,295.804 427.866,303.137 457,330.5C 478.258,354.53 485.258,382.196 478,413.5C 462.44,397.271 446.273,381.771 429.5,367C 407.487,356.522 387.987,360.022 371,377.5C 356.895,397.413 357.229,417.08 372,436.5C 385.833,450.333 399.667,464.167 413.5,478C 371.464,486.551 338.63,473.051 315,437.5C 300.943,411.326 298.776,384.159 308.5,356C 308.048,352.591 306.881,349.424 305,346.5C 258.167,299.667 211.333,252.833 164.5,206C 161.576,204.119 158.409,202.952 155,202.5C 118.867,214.672 86.3666,208.505 57.5,184C 33.6965,159.59 25.5298,130.757 33,97.5C 46.8333,111.333 60.6667,125.167 74.5,139C 93.3502,153.21 112.684,153.876 132.5,141C 148.961,126.322 153.795,108.489 147,87.5C 145.086,82.6647 142.419,78.3314 139,74.5C 125.167,60.6667 111.333,46.8333 97.5,33C 104.564,31.3398 111.564,30.1731 118.5,29.5 Z M 450.5,34.5 C 459.759,42.0897 468.426,50.4231 476.5,59.5C 461.336,85.832 445.67,111.832 429.5,137.5C 410.319,119.152 391.652,100.319 373.5,81C 399.23,65.4742 424.897,49.9742 450.5,34.5 Z M 368.5,121.5 C 375.632,128.131 382.632,134.964 389.5,142C 362.833,168.667 336.167,195.333 309.5,222C 308.833,222.667 308.167,222.667 307.5,222C 301.333,215.833 295.167,209.667 289,203.5C 288.333,202.833 288.333,202.167 289,201.5C 315.702,174.965 342.202,148.299 368.5,121.5 Z M 180.5,267.5 C 201.749,287.247 222.582,307.58 243,328.5C 243.667,329.167 243.667,329.833 243,330.5C 195.139,378.694 146.972,426.528 98.5,474C 74.2416,486.24 53.7416,481.74 37,460.5C 28.3333,444.5 28.3333,428.5 37,412.5C 84.6737,363.993 132.507,315.66 180.5,267.5 Z"/></g>
<g><path style="opacity:0.94" fill="#083344" d="M 180.5,314.5 C 191.498,314.002 197.832,319.168 199.5,330C 199.176,334.308 197.676,338.141 195,341.5C 164.5,372 134,402.5 103.5,433C 93.4776,439.858 84.9776,438.358 78,428.5C 75.7959,421.979 76.7959,415.979 81,410.5C 111.5,380 142,349.5 172.5,319C 175.099,317.205 177.766,315.705 180.5,314.5 Z"/></g>
</svg>
