<?xml version="1.0" encoding="UTF-8"?>
<!DOCTYPE svg PUBLIC "-//W3C//DTD SVG 1.1//EN" "http://www.w3.org/Graphics/SVG/1.1/DTD/svg11.dtd">
<svg xmlns="http://www.w3.org/2000/svg" version="1.1" width="512px" height="512px" style="shape-rendering:geometricPrecision; text-rendering:geometricPrecision; image-rendering:optimizeQuality; fill-rule:evenodd; clip-rule:evenodd" xmlns:xlink="http://www.w3.org/1999/xlink">
<g><path style="opacity:0.986" fill="#083344" d="M 511.5,265.5 C 511.5,300.5 511.5,335.5 511.5,370.5C 506.348,388.484 494.682,399.984 476.5,405C 468.173,405.5 459.84,405.666 451.5,405.5C 450.007,437.497 433.674,457.331 402.5,465C 365.342,468.487 341.842,452.321 332,416.5C 331.501,412.848 331.335,409.182 331.5,405.5C 281.167,405.5 230.833,405.5 180.5,405.5C 179.007,437.497 162.674,457.331 131.5,465C 94.3421,468.487 70.8421,452.321 61,416.5C 60.5014,412.848 60.3347,409.182 60.5,405.5C 43.1635,405.667 25.8301,405.5 8.5,405C 4.31481,403.312 1.31481,400.479 -0.5,396.5C -0.5,291.167 -0.5,185.833 -0.5,80.5C 4.65165,62.5157 16.3183,51.0157 34.5,46C 121.833,45.3333 209.167,45.3333 296.5,46C 314.667,50.8333 326.167,62.3333 331,80.5C 331.5,98.8303 331.667,117.164 331.5,135.5C 369.228,135.019 406.895,135.519 444.5,137C 446.667,138.5 448.5,140.333 450,142.5C 470.546,183.592 491.046,224.592 511.5,265.5 Z M 44.5,75.5 C 125.167,75.3333 205.834,75.5 286.5,76C 295.333,76.8333 300.167,81.6667 301,90.5C 301.5,185.499 301.667,280.499 301.5,375.5C 258.495,375.833 215.495,375.5 172.5,374.5C 156.125,350.156 133.459,340.99 104.5,347C 88.9573,351.597 76.9573,360.763 68.5,374.5C 55.5171,375.499 42.5171,375.832 29.5,375.5C 29.3333,280.499 29.5,185.499 30,90.5C 31.0117,81.6566 35.8451,76.6566 44.5,75.5 Z M 164.5,143.5 C 180.081,157.579 195.248,172.245 210,187.5C 210.5,220.165 210.667,252.832 210.5,285.5C 200.5,285.5 190.5,285.5 180.5,285.5C 180.667,268.497 180.5,251.497 180,234.5C 174.848,225.525 167.348,223.025 157.5,227C 154.527,228.765 152.36,231.265 151,234.5C 150.5,251.497 150.333,268.497 150.5,285.5C 140.5,285.5 130.5,285.5 120.5,285.5C 120.333,252.832 120.5,220.165 121,187.5C 135.702,172.965 150.202,158.299 164.5,143.5 Z M 331.5,165.5 C 363.168,165.333 394.835,165.5 426.5,166C 431.5,175.667 436.5,185.333 441.5,195C 417.833,195.333 394.167,195.667 370.5,196C 366.333,197.5 363.5,200.333 362,204.5C 361.333,228.5 361.333,252.5 362,276.5C 363.5,280.667 366.333,283.5 370.5,285C 407.498,285.5 444.498,285.667 481.5,285.5C 481.5,295.5 481.5,305.5 481.5,315.5C 474.492,315.334 467.492,315.5 460.5,316C 451.525,321.152 449.025,328.652 453,338.5C 454.167,341 456,342.833 458.5,344C 466.054,345.432 473.721,345.932 481.5,345.5C 485.278,367.041 476.444,377.041 455,375.5C 447.246,377.101 441.913,374.434 439,367.5C 419.912,346.279 396.746,340.112 369.5,349C 356.584,354.084 346.584,362.584 339.5,374.5C 336.914,375.48 334.247,375.813 331.5,375.5C 331.5,305.5 331.5,235.5 331.5,165.5 Z M 391.5,225.5 C 413.169,225.333 434.836,225.5 456.5,226C 461.5,235.667 466.5,245.333 471.5,255C 444.835,255.5 418.169,255.667 391.5,255.5C 391.5,245.5 391.5,235.5 391.5,225.5 Z M 113.5,376.5 C 138.644,375.476 150.477,387.476 149,412.5C 143.051,429.23 131.218,436.397 113.5,434C 96.7701,428.051 89.6034,416.218 92,398.5C 95.3501,387.318 102.517,379.984 113.5,376.5 Z M 384.5,376.5 C 409.644,375.476 421.477,387.476 420,412.5C 414.051,429.23 402.218,436.397 384.5,434C 367.77,428.051 360.603,416.218 363,398.5C 366.35,387.318 373.517,379.984 384.5,376.5 Z"/></g>
<g><path style="opacity:0.976" fill="#083344" d="M 159.5,105.5 C 165.675,104.643 171.342,105.81 176.5,109C 206.667,139.167 236.833,169.333 267,199.5C 271.667,206.833 271.667,214.167 267,221.5C 257.515,227.598 248.848,226.598 241,218.5C 240.667,247.833 240.333,277.167 240,306.5C 238.5,310.667 235.667,313.5 231.5,315C 187.5,315.667 143.5,315.667 99.5,315C 95.3333,313.5 92.5,310.667 91,306.5C 90.6667,277.167 90.3333,247.833 90,218.5C 82.4416,226.394 73.9416,227.561 64.5,222C 59.3722,214.625 59.2055,207.125 64,199.5C 95.4232,167.575 127.257,136.242 159.5,105.5 Z M 164.5,143.5 C 150.202,158.299 135.702,172.965 121,187.5C 120.5,220.165 120.333,252.832 120.5,285.5C 130.5,285.5 140.5,285.5 150.5,285.5C 150.333,268.497 150.5,251.497 151,234.5C 152.36,231.265 154.527,228.765 157.5,227C 167.348,223.025 174.848,225.525 180,234.5C 180.5,251.497 180.667,268.497 180.5,285.5C 190.5,285.5 200.5,285.5 210.5,285.5C 210.667,252.832 210.5,220.165 210,187.5C 195.248,172.245 180.081,157.579 164.5,143.5 Z"/></g>
<g><path style="opacity:0.928" fill="#083344" d="M 159.5,165.5 C 175.654,163.487 182.487,170.487 180,186.5C 175.652,194.915 168.819,197.748 159.5,195C 151.085,190.652 148.252,183.819 151,174.5C 152.688,170.315 155.521,167.315 159.5,165.5 Z"/></g>
</svg>
