<?xml version="1.0" encoding="UTF-8"?>
<!DOCTYPE svg PUBLIC "-//W3C//DTD SVG 1.1//EN" "http://www.w3.org/Graphics/SVG/1.1/DTD/svg11.dtd">
<svg xmlns="http://www.w3.org/2000/svg" version="1.1" width="512px" height="512px" style="shape-rendering:geometricPrecision; text-rendering:geometricPrecision; image-rendering:optimizeQuality; fill-rule:evenodd; clip-rule:evenodd" xmlns:xlink="http://www.w3.org/1999/xlink">
<g><path style="opacity:0.975" fill="#083343" d="M 252.5,-0.5 C 256.5,-0.5 260.5,-0.5 264.5,-0.5C 344.094,71.3164 423.76,143.15 503.5,215C 506.783,217.772 509.45,220.939 511.5,224.5C 511.5,228.167 511.5,231.833 511.5,235.5C 503.95,247.028 494.616,248.528 483.5,240C 480.318,236.651 476.985,233.484 473.5,230.5C 472.667,317.831 472.167,405.165 472,492.5C 469.822,501.837 464.322,508.17 455.5,511.5C 323.5,511.5 191.5,511.5 59.5,511.5C 51.342,508.247 46.1753,502.247 44,493.5C 43.6667,405.5 43.3333,317.5 43,229.5C 36.5,235.333 30,241.167 23.5,247C 13.176,251.661 5.17598,249.161 -0.5,239.5C -0.5,235.833 -0.5,232.167 -0.5,228.5C 2.22161,224.268 5.55494,220.435 9.5,217C 90.6945,144.634 171.695,72.1345 252.5,-0.5 Z M 258.5,35.5 C 319.463,90.6267 380.296,145.96 441,201.5C 441.5,294.833 441.667,388.166 441.5,481.5C 385.5,481.5 329.5,481.5 273.5,481.5C 273.5,472.167 273.5,462.833 273.5,453.5C 308.915,447.564 335.748,429.23 354,398.5C 368.746,369.61 371.412,339.61 362,308.5C 353.748,283.661 342.081,260.661 327,239.5C 311.996,219.154 295.496,199.987 277.5,182C 266.264,170.879 254.264,169.879 241.5,179C 207.94,210.647 181.107,247.147 161,288.5C 147.863,317.252 145.197,346.919 153,377.5C 168.037,420.267 197.871,445.601 242.5,453.5C 242.5,462.833 242.5,472.167 242.5,481.5C 186.5,481.5 130.5,481.5 74.5,481.5C 74.3333,387.833 74.5,294.166 75,200.5C 136.145,145.366 197.312,90.3659 258.5,35.5 Z"/></g>
<g><path style="opacity:1" fill="#a1e435" d="M 274.5,353.5 C 273.833,345.5 273.167,337.5 272.5,329.5C 269.677,319.261 263.011,315.428 252.5,318C 247.749,320.005 244.749,323.505 243.5,328.5C 242.833,336.833 242.167,345.167 241.5,353.5C 237.285,349.805 232.618,346.639 227.5,344C 212.112,344.071 206.612,351.571 211,366.5C 220.967,375.313 231.301,383.646 242,391.5C 242.5,401.828 242.666,412.161 242.5,422.5C 206.299,413.488 185.132,390.488 179,353.5C 177.831,335.01 181.164,317.343 189,300.5C 206.22,265.052 229.054,233.719 257.5,206.5C 291.583,237.42 316.749,274.42 333,317.5C 343.447,356.496 332.614,387.996 300.5,412C 291.899,417.468 282.566,420.968 272.5,422.5C 272.168,412.145 272.501,401.812 273.5,391.5C 282.693,384.473 292.026,377.64 301.5,371C 308.011,364.749 309.177,357.582 305,349.5C 300.705,344.105 295.205,342.271 288.5,344C 283.631,346.929 278.965,350.096 274.5,353.5 Z"/></g>
<g><path style="opacity:1" fill="#497e3e" d="M 243.5,328.5 C 243.831,337.192 243.498,345.859 242.5,354.5C 241.893,354.376 241.56,354.043 241.5,353.5C 242.167,345.167 242.833,336.833 243.5,328.5 Z"/></g>
<g><path style="opacity:1" fill="#669f3b" d="M 272.5,329.5 C 273.167,337.5 273.833,345.5 274.5,353.5C 274.44,354.043 274.107,354.376 273.5,354.5C 272.502,346.193 272.169,337.86 272.5,329.5 Z"/></g>
</svg>
